# 3ds Max Wavefront OBJ Exporter v0.97b - (c)2007 guruware
# File Created: 19.04.2015 16:31:58

#
# object Box001
#

v  -0.4000 0.0000 0.4000
v  -0.4000 0.0000 -0.4000
v  0.4000 0.0000 -0.4000
v  0.4000 0.0000 0.4000
v  -0.4000 1.0000 0.4000
v  0.4000 1.0000 0.4000
v  0.4000 1.0000 -0.4000
v  -0.4000 1.0000 -0.4000
v  -0.4000 0.1000 0.5000
v  0.4000 0.1000 0.5000
v  0.4000 0.9000 0.5000
v  -0.4000 0.9000 0.5000
v  0.5000 0.1000 0.4000
v  0.5000 0.1000 -0.4000
v  0.5000 0.9000 -0.4000
v  0.5000 0.9000 0.4000
v  0.4000 0.1000 -0.5000
v  -0.4000 0.1000 -0.5000
v  -0.4000 0.9000 -0.5000
v  0.4000 0.9000 -0.5000
v  -0.5000 0.1000 -0.4000
v  -0.5000 0.1000 0.4000
v  -0.5000 0.9000 0.4000
v  -0.5000 0.9000 -0.4000
# 24 vertices

vn 0.0000 -1.0000 -0.0000
vn 0.0000 1.0000 -0.0000
vn 0.0000 0.0000 1.0000
vn 1.0000 0.0000 -0.0000
vn 0.0000 0.0000 -1.0000
vn -1.0000 0.0000 -0.0000
vn -0.5774 -0.5774 0.5774
vn 0.5774 -0.5774 0.5774
vn -0.5774 -0.5774 -0.5774
vn 0.5774 -0.5774 -0.5774
vn -0.5774 0.5774 0.5774
vn 0.5774 0.5774 0.5774
vn -0.5774 0.5774 -0.5774
vn 0.5774 0.5774 -0.5774
vn -0.7071 -0.7071 -0.0000
vn 0.0000 -0.7071 -0.7071
vn 0.7071 -0.7071 -0.0000
vn 0.0000 -0.7071 0.7071
vn 0.0000 0.7071 0.7071
vn 0.7071 0.7071 -0.0000
vn 0.0000 0.7071 -0.7071
vn -0.7071 0.7071 -0.0000
vn 0.7071 0.0000 0.7071
vn -0.7071 0.0000 0.7071
vn 0.7071 0.0000 -0.7071
vn -0.7071 0.0000 -0.7071
# 26 vertex normals

vt 0.9000 0.1000 0.0000
vt 0.9000 0.9000 0.0000
vt 0.1000 0.9000 0.0000
vt 0.1000 0.1000 0.0000
vt -0.0225 0.1707 0.0000
vt -0.0225 0.0293 0.0000
vt -0.0225 0.9707 0.0000
vt -0.0225 0.8293 0.0000
vt 0.9000 0.2414 0.0000
vt 0.1000 0.2414 0.0000
vt 0.1000 0.7586 0.0000
vt 0.9000 0.7586 0.0000
vt 0.2414 0.1000 0.0000
vt 0.2414 0.9000 0.0000
vt 0.7586 0.9000 0.0000
vt 0.7586 0.1000 0.0000
# 16 texture coords

g Box001
s 2
f 1/1/1 2/2/1 3/3/1 4/4/1 
s 4
f 5/4/2 6/1/2 7/2/2 8/3/2 
s 8
f 9/4/3 10/1/3 11/2/3 12/3/3 
s 16
f 13/4/4 14/1/4 15/2/4 16/3/4 
s 32
f 17/4/5 18/1/5 19/2/5 20/3/5 
s 64
f 21/4/6 22/1/6 23/2/6 24/3/6 
s off
f 9/4/7 22/5/7 1/6/7 
f 4/4/8 13/5/8 10/6/8 
f 21/4/9 18/5/9 2/6/9 
f 3/3/10 17/7/10 14/8/10 
f 12/3/11 5/7/11 23/8/11 
f 16/3/12 6/7/12 11/8/12 
f 24/3/13 8/7/13 19/8/13 
f 20/3/14 7/7/14 15/8/14 
f 1/9/15 22/1/15 21/4/15 2/10/15 
f 2/9/16 18/1/16 17/4/16 3/10/16 
f 3/9/17 14/1/17 13/4/17 4/10/17 
f 4/9/18 10/1/18 9/4/18 1/10/18 
f 5/11/19 12/3/19 11/2/19 6/12/19 
f 6/11/20 16/3/20 15/2/20 7/12/20 
f 7/11/21 20/3/21 19/2/21 8/12/21 
f 8/11/22 24/3/22 23/2/22 5/12/22 
f 10/13/23 13/4/23 16/3/23 11/14/23 
f 12/15/24 23/2/24 22/1/24 9/16/24 
f 14/13/25 17/4/25 20/3/25 15/14/25 
f 18/13/26 21/4/26 24/3/26 19/14/26 
# 18 polygons - 8 triangles

